<svg width="30" height="26" viewBox="0 0 30 26" fill="none" xmlns="http://www.w3.org/2000/svg">
<path d="M3.28125 0.125H26.7188C27.3698 0.125 27.9232 0.352865 28.3789 0.808594C28.8346 1.26432 29.0625 1.81771 29.0625 2.46875V18.0938C29.0625 18.7448 28.8346 19.2982 28.3789 19.7539C27.9232 20.2096 27.3698 20.4375 26.7188 20.4375H17.3438L18.125 22.7812H21.6406C21.9661 22.7812 22.2428 22.8952 22.4707 23.123C22.6986 23.3509 22.8125 23.6276 22.8125 23.9531C22.8125 24.2786 22.6986 24.5553 22.4707 24.7832C22.2428 25.0111 21.9661 25.125 21.6406 25.125H8.35938C8.03385 25.125 7.75716 25.0111 7.5293 24.7832C7.30143 24.5553 7.1875 24.2786 7.1875 23.9531C7.1875 23.6276 7.30143 23.3509 7.5293 23.123C7.75716 22.8952 8.03385 22.7812 8.35938 22.7812H11.875L12.6562 20.4375H3.28125C2.63021 20.4375 2.07682 20.2096 1.62109 19.7539C1.16536 19.2982 0.9375 18.7448 0.9375 18.0938V2.46875C0.9375 1.81771 1.16536 1.26432 1.62109 0.808594C2.07682 0.352865 2.63021 0.125 3.28125 0.125ZM4.0625 17.3125H25.9375V3.25H4.0625V17.3125Z" fill="white"/>
</svg>
