<svg width="26" height="26" viewBox="0 0 26 26" fill="none" xmlns="http://www.w3.org/2000/svg">
<path d="M1.42773 1.3457L6.50586 0.173828C6.76628 0.108724 7.02669 0.141276 7.28711 0.271484C7.54753 0.401693 7.72656 0.580729 7.82422 0.808594L10.168 6.27734C10.2656 6.53776 10.2819 6.79818 10.2168 7.05859C10.1517 7.28646 10.0215 7.48177 9.82617 7.64453L6.89648 10.0859C7.77539 11.974 8.96354 13.6667 10.4609 15.1641C11.9258 16.6615 13.6185 17.8496 15.5391 18.7285L17.9316 15.7988C18.0944 15.571 18.306 15.4408 18.5664 15.4082C18.8268 15.3431 19.071 15.3594 19.2988 15.457L24.7676 17.8008C25.028 17.8984 25.2233 18.0775 25.3535 18.3379C25.4837 18.5983 25.5163 18.8587 25.4512 19.1191L24.2793 24.1973C24.2467 24.4902 24.1165 24.7181 23.8887 24.8809C23.6608 25.0436 23.4167 25.125 23.1562 25.125C19.0547 25.125 15.2461 24.0996 11.7305 22.0488C8.3125 20.0306 5.5944 17.3125 3.57617 13.8945C1.52539 10.3789 0.5 6.57031 0.5 2.46875C0.5 2.20833 0.58138 1.96419 0.744141 1.73633C0.906901 1.50846 1.13477 1.37826 1.42773 1.3457Z" fill="white"/>
</svg>
