<svg width="26" height="25" viewBox="0 0 26 25" fill="none" xmlns="http://www.w3.org/2000/svg">
<path d="M13 0.515625C15.181 0.515625 17.1992 1.06901 19.0547 2.17578C20.9102 3.25 22.3913 4.71484 23.498 6.57031C24.5723 8.42578 25.1094 10.444 25.1094 12.625C25.1094 14.806 24.5723 16.8242 23.498 18.6797C22.3913 20.5352 20.9102 22 19.0547 23.0742C17.1992 24.181 15.181 24.7344 13 24.7344C10.819 24.7344 8.80078 24.181 6.94531 23.0742C5.08984 22 3.625 20.5352 2.55078 18.6797C1.44401 16.8242 0.890625 14.806 0.890625 12.625C0.890625 10.444 1.44401 8.42578 2.55078 6.57031C3.625 4.71484 5.08984 3.25 6.94531 2.17578C8.80078 1.06901 10.819 0.515625 13 0.515625ZM10.2168 17.6055L14.5137 14.4805C14.6764 14.3503 14.7578 14.1875 14.7578 13.9922V5.78906C14.7578 5.6263 14.709 5.49609 14.6113 5.39844C14.4811 5.26823 14.3346 5.20312 14.1719 5.20312H11.8281C11.6654 5.20312 11.5352 5.26823 11.4375 5.39844C11.3073 5.49609 11.2422 5.6263 11.2422 5.78906V12.5273L8.11719 14.7734C7.98698 14.8711 7.92188 15.0013 7.92188 15.1641C7.88932 15.3268 7.92188 15.4733 8.01953 15.6035L9.38672 17.459C9.48438 17.5892 9.61458 17.6706 9.77734 17.7031C9.9401 17.7357 10.0866 17.7031 10.2168 17.6055Z" fill="white"/>
</svg>
